<svg width="0" height="0" class="hidden">
  <symbol id="search" xmlns="http://www.w3.org/2000/svg" viewBox="0 0 21.8 23.8">
    <defs></defs>
    <path d="M11,17.9a8.7,8.7,0,0,0,.8,4.8,1,1,0,0,0,1.2.4.8.8,0,0,0,.4-1.2,8.3,8.3,0,0,1-.7-3.8,7.6,7.6,0,0,1,15.2,1.1A7.7,7.7,0,0,1,16.1,25a.8.8,0,0,0-1.2.2.9.9,0,0,0,.2,1.3A10,10,0,0,0,19.6,28a9.3,9.3,0,0,0,6.1-1.7l5.5,6.4a.9.9,0,0,0,.6.3.7.7,0,0,0,.7-.2.9.9,0,0,0,.1-1.2L27,25.2a8.9,8.9,0,0,0,2.6-5.8A9.3,9.3,0,1,0,11,17.9Z" transform="translate(-10.9 -9.3)"></path>
  </symbol>
  <symbol xmlns="http://www.w3.org/2000/svg" viewBox="0 0 16 11" id="tick">
    <defs></defs>
    <path id="Shape_10_copy_5" d="M2,4L6,8l8-8"></path>
  </symbol>
  <symbol id="chevron" xmlns="http://www.w3.org/2000/svg" viewBox="0 0 51 51">
    <defs></defs>
    <circle cx="25.5" cy="25.5" r="25.5"></circle>
    <rect x="24.4" y="27.9" width="1.6" height="15.24" rx="0.8" transform="matrix(0.78, -0.63, 0.63, 0.78, -21.26, 15.39)"></rect>
    <rect x="33.3" y="27.9" width="1.6" height="15.24" rx="0.8" transform="translate(24 -21.9) rotate(37.3)"></rect>
  </symbol>
  <symbol xmlns="http://www.w3.org/2000/svg" viewBox="0 0 50 2" id="line">
    <path fill="#63c3ef" d="M0 0h50v2H0z"></path>
  </symbol>
  <symbol version="1.1" id="settings" xmlns="http://www.w3.org/2000/svg" xmlns:xlink="http://www.w3.org/1999/xlink" x="0px" y="0px" xml:space="preserve" viewBox="0 0 485.656 485.656">
    <g>
      <g>
        <path d="M334.512,312h-200c-2.122,0-4.156,0.844-5.656,2.344l-96,96l11.312,11.312L137.824,328h187.888
			c-1.664,9.496-6.888,24-23.2,24h-88v16h88c31.64,0,40-31.4,40-48C342.512,315.582,338.93,312,334.512,312z"></path>
      </g>
    </g>
    <g>
      <g>
        <path d="M436.168,258.344c-3.124-3.123-8.188-3.123-11.312,0l-72,72l11.312,11.312l65.712-65.712
			c10.828,14.37,8.629,34.68-5.024,46.4L331.2,416H166.512c-2.122,0-4.156,0.844-5.656,2.344l-56,56l11.312,11.312L169.824,432
			h164.688c2.122,0,4.156-0.844,5.656-2.344l96-96C465.96,303.864,449.192,271.368,436.168,258.344z"></path>
      </g>
    </g>
    <g>
      <g>
        <path d="M390.512,112H361.76c-2.193-7.348-5.139-14.45-8.792-21.192l20.344-20.344c3.123-3.124,3.123-8.188,0-11.312
			L339.36,25.208c-3.124-3.123-8.188-3.123-11.312,0l-20.344,20.344c-6.741-3.658-13.843-6.607-21.192-8.8V8c0-4.418-3.582-8-8-8
			h-48c-4.418,0-8,3.582-8,8v28.752c-7.349,2.193-14.451,5.142-21.192,8.8l-20.344-20.344c-3.124-3.123-8.188-3.123-11.312,0
			l-33.952,33.944c-3.123,3.124-3.123,8.188,0,11.312l20.352,20.344c-3.655,6.742-6.604,13.844-8.8,21.192h-28.752
			c-4.418,0-8,3.582-8,8v48c0,4.418,3.582,8,8,8h28.752c2.193,7.348,5.139,14.45,8.792,21.192l-20.344,20.344
			c-3.123,3.124-3.123,8.188,0,11.312l33.952,33.952c3.174,3.001,8.138,3.001,11.312,0l20.344-20.352
			c6.742,3.655,13.844,6.604,21.192,8.8V280c0,4.418,3.582,8,8,8h48c4.418,0,8-3.582,8-8v-28.752
			c7.348-2.194,14.449-5.14,21.192-8.792l20.344,20.344c1.5,1.5,3.534,2.344,5.656,2.344s4.156-0.844,5.656-2.344l33.944-33.952
			c3.123-3.124,3.123-8.188,0-11.312l-20.344-20.344c3.655-6.742,6.604-13.844,8.8-21.192h28.752c4.418,0,8-3.582,8-8v-48
			C398.512,115.582,394.93,112,390.512,112z M382.513,160h-26.888c-3.709,0.001-6.931,2.551-7.784,6.16
			c-2.366,9.945-6.309,19.447-11.68,28.144c-1.95,3.157-1.473,7.241,1.152,9.864l19.032,19.024l-22.64,22.64l-19.024-19.04
			c-2.623-2.625-6.707-3.102-9.864-1.152c-8.695,5.378-18.197,9.325-28.144,11.688c-3.609,0.853-6.159,4.075-6.16,7.784V272h-32
			v-26.88c-0.001-3.709-2.551-6.931-6.16-7.784c-9.947-2.363-19.449-6.31-28.144-11.688c-3.157-1.95-7.241-1.473-9.864,1.152
			l-19.024,19.04l-22.64-22.64l19.032-19.04c2.625-2.623,3.102-6.707,1.152-9.864c-5.371-8.698-9.314-18.199-11.68-28.144
			c-0.853-3.609-4.075-6.159-7.784-6.16h-26.888v-32H153.4c3.709-0.001,6.931-2.551,7.784-6.16
			c2.366-9.945,6.309-19.446,11.68-28.144c1.95-3.157,1.473-7.241-1.152-9.864L152.68,64.8l22.632-22.624l19.032,19.032
			c2.623,2.625,6.707,3.102,9.864,1.152c8.693-5.379,18.196-9.323,28.144-11.68c3.609-0.853,6.159-4.075,6.16-7.784V16h32v26.896
			c0.002,3.711,2.555,6.934,6.168,7.784c9.948,2.357,19.451,6.301,28.144,11.68c3.157,1.95,7.241,1.473,9.864-1.152l19.024-19.032
			L356.345,64.8l-19.032,19.032c-2.625,2.623-3.102,6.707-1.152,9.864c5.371,8.698,9.314,18.199,11.68,28.144
			c0.853,3.609,4.075,6.159,7.784,6.16h26.888V160z"></path>
      </g>
    </g>
    <g>
      <g>
        <path d="M254.512,96c-26.51,0-48,21.49-48,48s21.491,48,48,48c26.499-0.026,47.974-21.501,48-48
			C302.512,117.49,281.022,96,254.512,96z M254.512,176c-17.673,0-32-14.327-32-32c0-17.673,14.327-32,32-32
			c17.673,0,32,14.327,32,32C286.512,161.673,272.185,176,254.512,176z"></path>
      </g>
    </g>
    <g></g>
    <g></g>
    <g></g>
    <g></g>
    <g></g>
    <g></g>
    <g></g>
    <g></g>
    <g></g>
    <g></g>
    <g></g>
    <g></g>
    <g></g>
    <g></g>
    <g></g>
  </symbol>
  <symbol version="1.1" id="quotes" xmlns="http://www.w3.org/2000/svg" xmlns:xlink="http://www.w3.org/1999/xlink" x="0px" y="0px" xml:space="preserve" viewBox="0 0 508.044 508.044">
    <g>
      <g>
        <path d="M0.108,352.536c0,66.794,54.144,120.938,120.937,120.938c66.794,0,120.938-54.144,120.938-120.938
			s-54.144-120.937-120.938-120.937c-13.727,0-26.867,2.393-39.168,6.61C109.093,82.118,230.814-18.543,117.979,64.303
			C-7.138,156.17-0.026,348.84,0.114,352.371C0.114,352.426,0.108,352.475,0.108,352.536z"></path>
        <path d="M266.169,352.536c0,66.794,54.144,120.938,120.938,120.938s120.938-54.144,120.938-120.938S453.9,231.599,387.106,231.599
			c-13.728,0-26.867,2.393-39.168,6.61C375.154,82.118,496.875-18.543,384.04,64.303C258.923,156.17,266.034,348.84,266.175,352.371
			C266.175,352.426,266.169,352.475,266.169,352.536z"></path>
      </g>
    </g>
    <g></g>
    <g></g>
    <g></g>
    <g></g>
    <g></g>
    <g></g>
    <g></g>
    <g></g>
    <g></g>
    <g></g>
    <g></g>
    <g></g>
    <g></g>
    <g></g>
    <g></g>
  </symbol>
  <symbol id="growth" enable-background="new 0 0 512 512" xmlns="http://www.w3.org/2000/svg" viewBox="0 0 512 512">
    <g>
      <g>
        <path d="m504.5 480.837h-38.97v-240.347c0-4.142-3.357-7.5-7.5-7.5s-7.5 3.358-7.5 7.5v240.347h-49.648l-.002-318.357h49.65v43.01c0 4.142 3.357 7.5 7.5 7.5s7.5-3.358 7.5-7.5v-50.51c0-4.142-3.357-7.5-7.5-7.5h-64.65c-4.143 0-7.5 3.358-7.5 7.5v43.012h-57.148c-4.143 0-7.5 3.358-7.5 7.5v43.008h-57.15c-4.143 0-7.5 3.358-7.5 7.5v43.008h-57.15c-4.143 0-7.5 3.358-7.5 7.5v43.008h-57.15c-4.143 0-7.5 3.358-7.5 7.5v38.964h-57.152c-4.143 0-7.5 3.358-7.5 7.5v20.89c0 4.142 3.357 7.5 7.5 7.5s7.5-3.358 7.5-7.5v-13.39h49.65v69.857h-49.65v-21.467c0-4.142-3.357-7.5-7.5-7.5s-7.5 3.358-7.5 7.5v21.467h-31.467v-473.337c0-4.142-3.357-7.5-7.5-7.5s-7.5 3.358-7.5 7.5v38.967h-8.663c-4.143 0-7.5 3.358-7.5 7.5s3.357 7.5 7.5 7.5h8.663v49.65h-8.663c-4.143 0-7.5 3.358-7.5 7.5s3.357 7.5 7.5 7.5h8.663v49.65h-8.663c-4.143 0-7.5 3.358-7.5 7.5s3.357 7.5 7.5 7.5h8.663v49.65h-8.663c-4.143 0-7.5 3.358-7.5 7.5s3.357 7.5 7.5 7.5h8.663v49.651h-8.663c-4.143 0-7.5 3.358-7.5 7.5s3.357 7.5 7.5 7.5h8.663v49.65h-8.663c-4.143 0-7.5 3.358-7.5 7.5s3.357 7.5 7.5 7.5h8.663v49.65h-8.663c-4.143 0-7.5 3.358-7.5 7.5s3.357 7.5 7.5 7.5h8.663v38.967c0 4.142 3.357 7.5 7.5 7.5h38.967v8.663c0 4.142 3.357 7.5 7.5 7.5s7.5-3.358 7.5-7.5v-8.66h49.65v8.66c0 4.142 3.357 7.5 7.5 7.5s7.5-3.358 7.5-7.5v-8.663h49.65v8.663c0 4.142 3.357 7.5 7.5 7.5s7.5-3.358 7.5-7.5v-8.663h49.65v8.663c0 4.142 3.357 7.5 7.5 7.5s7.5-3.358 7.5-7.5v-8.663h49.65v8.663c0 4.142 3.357 7.5 7.5 7.5s7.5-3.358 7.5-7.5v-8.663h49.65v8.663c0 4.142 3.357 7.5 7.5 7.5s7.5-3.358 7.5-7.5v-8.66h49.65v8.66c0 4.142 3.357 7.5 7.5 7.5s7.5-3.358 7.5-7.5v-8.663h38.97c4.143 0 7.5-3.358 7.5-7.5s-3.357-7.498-7.5-7.498zm-362.22-116.321h49.65v116.321h-49.65zm64.651-50.508h49.65v166.829h-49.65zm64.65-50.508h49.65v217.337h-49.65zm64.65-50.508h49.648v267.846h-49.648z"></path>
        <path d="m86.1 338.44c6.323 0 12.267-2.46 16.734-6.927l112.91-112.91c2.929-2.929 2.929-7.678 0-10.606-2.93-2.929-7.678-2.929-10.607 0l-112.909 112.909c-1.635 1.634-3.811 2.534-6.128 2.534-2.311 0-4.482-.9-6.116-2.533-1.64-1.64-2.543-3.817-2.543-6.13 0-2.311.901-4.484 2.543-6.123l263.521-263.52c2.145-2.145 2.786-5.371 1.625-8.173-1.16-2.803-3.896-4.63-6.929-4.63h-23.61c-4.775 0-8.66-3.889-8.66-8.67 0-4.775 3.885-8.66 8.66-8.66h62.63c4.775 0 8.66 3.885 8.66 8.66v62.63c0 4.781-3.885 8.67-8.66 8.67s-8.66-3.889-8.66-8.67v-23.611c0-3.034-1.827-5.768-4.63-6.929-2.804-1.161-6.027-.518-8.174 1.626l-125.88 125.88c-2.929 2.929-2.929 7.678 0 10.606 2.93 2.929 7.678 2.929 10.607 0l113.076-113.076v5.503c0 13.052 10.614 23.67 23.66 23.67s23.66-10.618 23.66-23.67v-62.63c0-13.046-10.614-23.66-23.66-23.66h-62.63c-13.046 0-23.66 10.614-23.66 23.66 0 13.052 10.614 23.67 23.66 23.67h5.504l-250.714 250.713c-4.475 4.469-6.939 10.412-6.939 16.733 0 6.32 2.463 12.264 6.937 16.737 4.466 4.467 10.405 6.927 16.722 6.927z"></path>
      </g>
    </g>
  </symbol>
  <symbol id="menu" enable-background="new 0 0 24 24" xmlns="http://www.w3.org/2000/svg" viewBox="0 0 24 24">
    <g>
      <path d="m21.5 24h-19c-1.379 0-2.5-1.122-2.5-2.5v-19c0-1.378 1.121-2.5 2.5-2.5h19c1.379 0 2.5 1.122 2.5 2.5v19c0 1.378-1.121 2.5-2.5 2.5zm-19-23c-.827 0-1.5.673-1.5 1.5v19c0 .827.673 1.5 1.5 1.5h19c.827 0 1.5-.673 1.5-1.5v-19c0-.827-.673-1.5-1.5-1.5z"></path>
    </g>
    <g>
      <path d="m16.5 8h-9c-.276 0-.5-.224-.5-.5s.224-.5.5-.5h9c.276 0 .5.224.5.5s-.224.5-.5.5z"></path>
    </g>
    <g>
      <path d="m16.5 12.5h-9c-.276 0-.5-.224-.5-.5s.224-.5.5-.5h9c.276 0 .5.224.5.5s-.224.5-.5.5z"></path>
    </g>
    <g>
      <path d="m16.5 17h-9c-.276 0-.5-.224-.5-.5s.224-.5.5-.5h9c.276 0 .5.224.5.5s-.224.5-.5.5z"></path>
    </g>
  </symbol>
</svg>